<?xml version="1.0" encoding="utf-8"?>
<!-- Generator: Adobe Illustrator 25.2.0, SVG Export Plug-In . SVG Version: 6.00 Build 0)  -->
<svg version="1.1" id="base_1_" xmlns="http://www.w3.org/2000/svg" xmlns:xlink="http://www.w3.org/1999/xlink" x="0px" y="0px"
	 viewBox="0 0 548.37 281.44" style="enable-background:new 0 0 548.37 281.44;" xml:space="preserve">
<style type="text/css">
	.st0{fill:#040000;}
</style>
<g>
	<path class="st0" d="M106.41,240.42h1.5v11.33h-1.5v-5.12h-5.71v5.12h-1.49v-11.33h1.49v5.04h5.71V240.42z"/>
	<path class="st0" d="M117.19,251.87c-1.62,0-2.99-0.55-4.11-1.64s-1.67-2.48-1.67-4.15s0.56-3.05,1.67-4.14s2.48-1.63,4.11-1.63
		s2.99,0.54,4.1,1.63c1.11,1.08,1.66,2.47,1.66,4.15s-0.55,3.06-1.66,4.15C120.18,251.33,118.81,251.87,117.19,251.87z
		 M120.23,249.32c0.8-0.82,1.19-1.9,1.19-3.24c0-1.34-0.4-2.42-1.19-3.23s-1.81-1.22-3.05-1.22c-1.24,0-2.26,0.41-3.06,1.22
		c-0.8,0.81-1.2,1.89-1.2,3.23c0,1.34,0.4,2.42,1.21,3.24c0.81,0.82,1.83,1.23,3.06,1.23S119.43,250.14,120.23,249.32z"/>
	<path class="st0" d="M133.03,241.36c0.67,0.62,1.01,1.42,1.01,2.39s-0.33,1.77-0.97,2.4s-1.63,0.94-2.95,0.94h-2.19v4.68h-1.49
		v-11.33h3.68C131.38,240.42,132.36,240.74,133.03,241.36z M127.92,245.9h2.19c0.82,0,1.43-0.19,1.82-0.56
		c0.4-0.38,0.6-0.9,0.6-1.58c0-1.43-0.81-2.14-2.42-2.14h-2.19V245.9z"/>
	<path class="st0" d="M143.52,240.42v1.18h-4.51v3.86h4.02v1.16h-4.02v3.96h4.51v1.18h-6v-11.33H143.52z"/>
	<path class="st0" d="M166.8,240.42h1.57l-3.44,11.33h-1.67l-2.55-9.16l-2.73,9.16l-1.65,0.02l-3.21-11.35h1.57l2.52,9.63l2.75-9.63
		h1.64l2.54,9.6L166.8,240.42z"/>
	<path class="st0" d="M177.62,240.42v1.18h-4.51v3.86h4.02v1.16h-4.02v3.96h4.51v1.18h-6v-11.33H177.62z"/>
	<path class="st0" d="M189.14,250.22c-1.11-1.09-1.67-2.47-1.67-4.15s0.56-3.05,1.67-4.14s2.48-1.63,4.11-1.63
		c1.18,0,2.23,0.28,3.15,0.83c0.92,0.56,1.6,1.36,2.04,2.4h-1.8c-0.68-1.28-1.8-1.91-3.39-1.91c-1.23,0-2.25,0.41-3.05,1.22
		s-1.2,1.89-1.2,3.23c0,1.34,0.4,2.42,1.2,3.24c0.8,0.82,1.82,1.23,3.05,1.23c0.75,0,1.42-0.17,2.01-0.5
		c0.59-0.33,1.05-0.81,1.37-1.43h1.8c-0.44,1.05-1.11,1.85-2.04,2.4c-0.92,0.56-1.97,0.83-3.15,0.83
		C191.62,251.86,190.25,251.31,189.14,250.22z"/>
	<path class="st0" d="M210.22,251.76l-0.88-2.49h-5.04l-0.88,2.49h-1.52l4.12-11.33h1.64l4.11,11.33H210.22z M204.73,248.1h4.19
		l-2.09-5.86L204.73,248.1z"/>
	<path class="st0" d="M222.82,240.42h1.49v11.33h-1.49l-5.99-9v9h-1.49v-11.33h1.49l5.99,9V240.42z"/>
	<path class="st0" d="M236.15,243.45c0,0.42,0.11,0.76,0.34,1.03c0.23,0.27,0.52,0.47,0.88,0.61c0.36,0.13,0.76,0.25,1.2,0.34
		c0.44,0.1,0.88,0.21,1.33,0.33c0.44,0.13,0.84,0.29,1.2,0.48c0.36,0.2,0.65,0.49,0.88,0.88c0.23,0.39,0.34,0.88,0.34,1.46
		c0,0.88-0.34,1.65-1.01,2.31c-0.68,0.65-1.59,0.98-2.74,0.98s-2.09-0.26-2.81-0.79s-1.08-1.25-1.08-2.15h1.59
		c0.04,0.51,0.25,0.93,0.61,1.24c0.37,0.32,0.91,0.47,1.63,0.47s1.29-0.19,1.72-0.56c0.43-0.37,0.64-0.8,0.64-1.3
		s-0.11-0.88-0.34-1.15c-0.23-0.27-0.52-0.47-0.88-0.6c-0.36-0.13-0.76-0.24-1.2-0.33s-0.88-0.21-1.33-0.34
		c-0.44-0.13-0.84-0.3-1.2-0.5c-0.36-0.2-0.65-0.5-0.88-0.9c-0.23-0.4-0.34-0.89-0.34-1.48c0-0.96,0.34-1.73,1.02-2.31
		c0.68-0.58,1.57-0.88,2.67-0.88s1.97,0.25,2.62,0.76c0.65,0.51,1.02,1.21,1.12,2.1h-1.65c-0.04-0.45-0.25-0.83-0.63-1.14
		c-0.38-0.32-0.88-0.47-1.52-0.47s-1.16,0.16-1.56,0.48C236.35,242.36,236.15,242.83,236.15,243.45z"/>
	<path class="st0" d="M253.37,240.42h1.5v11.33h-1.5v-5.12h-5.71v5.12h-1.49v-11.33h1.49v5.04h5.71V240.42z"/>
	<path class="st0" d="M266.79,251.76l-0.88-2.49h-5.04l-0.88,2.49h-1.52l4.12-11.33h1.64l4.11,11.33H266.79z M261.29,248.1h4.19
		l-2.09-5.86L261.29,248.1z"/>
	<path class="st0" d="M273.39,247.08v4.68h-1.49v-11.33h3.68c1.28,0,2.25,0.31,2.92,0.93c0.67,0.62,1.01,1.38,1.01,2.28
		s-0.25,1.65-0.74,2.25c-0.49,0.6-1.23,0.98-2.21,1.13l3.12,4.74h-1.86l-2.98-4.68H273.39z M273.39,241.62v4.29h2.19
		c0.82,0,1.43-0.19,1.82-0.56c0.4-0.38,0.6-0.9,0.6-1.58c0-1.43-0.81-2.14-2.42-2.14H273.39z"/>
	<path class="st0" d="M289.63,240.42v1.18h-4.51v3.86h4.02v1.16h-4.02v3.96h4.51v1.18h-6v-11.33H289.63z"/>
	<path class="st0" d="M305.26,251.87c-1.62,0-2.99-0.55-4.11-1.64s-1.67-2.48-1.67-4.15s0.56-3.05,1.67-4.14s2.48-1.63,4.11-1.63
		s2.99,0.54,4.1,1.63c1.11,1.08,1.66,2.47,1.66,4.15s-0.55,3.06-1.66,4.15C308.25,251.33,306.88,251.87,305.26,251.87z
		 M308.3,249.32c0.8-0.82,1.19-1.9,1.19-3.24c0-1.34-0.4-2.42-1.19-3.23s-1.81-1.22-3.05-1.22c-1.24,0-2.26,0.41-3.06,1.22
		c-0.8,0.81-1.2,1.89-1.2,3.23c0,1.34,0.4,2.42,1.21,3.24c0.81,0.82,1.83,1.23,3.06,1.23S307.5,250.14,308.3,249.32z"/>
	<path class="st0" d="M314.48,247.79v-7.36h1.5v7.36c0,0.94,0.25,1.64,0.75,2.1c0.5,0.46,1.18,0.7,2.05,0.7
		c0.87,0,1.56-0.23,2.06-0.7c0.5-0.46,0.75-1.16,0.75-2.1v-7.36h1.49v7.36c0,1.33-0.41,2.34-1.22,3.04
		c-0.81,0.7-1.84,1.05-3.09,1.05c-1.25,0-2.28-0.35-3.08-1.05C314.88,250.13,314.48,249.12,314.48,247.79z"/>
	<path class="st0" d="M328.63,247.08v4.68h-1.49v-11.33h3.68c1.28,0,2.25,0.31,2.92,0.93c0.67,0.62,1.01,1.38,1.01,2.28
		s-0.25,1.65-0.74,2.25c-0.49,0.6-1.23,0.98-2.21,1.13l3.12,4.74h-1.86l-2.98-4.68H328.63z M328.63,241.62v4.29h2.19
		c0.82,0,1.43-0.19,1.82-0.56c0.4-0.38,0.6-0.9,0.6-1.58c0-1.43-0.81-2.14-2.42-2.14H328.63z"/>
	<path class="st0" d="M352.61,240.42h1.5v11.33h-1.5v-5.12h-5.71v5.12h-1.49v-11.33h1.49v5.04h5.71V240.42z"/>
	<path class="st0" d="M366.02,251.76l-0.88-2.49h-5.04l-0.88,2.49h-1.52l4.12-11.33h1.64l4.11,11.33H366.02z M360.53,248.1h4.19
		l-2.09-5.86L360.53,248.1z"/>
	<path class="st0" d="M377.74,241.36c0.67,0.62,1.01,1.42,1.01,2.39s-0.33,1.77-0.97,2.4s-1.63,0.94-2.95,0.94h-2.19v4.68h-1.49
		v-11.33h3.68C376.1,240.42,377.07,240.74,377.74,241.36z M372.63,245.9h2.19c0.82,0,1.43-0.19,1.82-0.56c0.4-0.38,0.6-0.9,0.6-1.58
		c0-1.43-0.81-2.14-2.42-2.14h-2.19V245.9z"/>
	<path class="st0" d="M388.83,241.36c0.67,0.62,1.01,1.42,1.01,2.39s-0.33,1.77-0.97,2.4s-1.63,0.94-2.95,0.94h-2.19v4.68h-1.49
		v-11.33h3.68C387.19,240.42,388.16,240.74,388.83,241.36z M383.72,245.9h2.19c0.82,0,1.43-0.19,1.82-0.56
		c0.4-0.38,0.6-0.9,0.6-1.58c0-1.43-0.81-2.14-2.42-2.14h-2.19V245.9z"/>
	<path class="st0" d="M393.32,251.76v-11.33h1.49v11.33H393.32z"/>
	<path class="st0" d="M406.37,240.42h1.49v11.33h-1.49l-5.99-9v9h-1.49v-11.33h1.49l5.99,9V240.42z"/>
	<path class="st0" d="M417.95,240.42v1.18h-4.51v3.86h4.02v1.16h-4.02v3.96h4.51v1.18h-6v-11.33H417.95z"/>
	<path class="st0" d="M423.06,243.45c0,0.42,0.11,0.76,0.34,1.03c0.23,0.27,0.52,0.47,0.88,0.61c0.36,0.13,0.76,0.25,1.2,0.34
		c0.44,0.1,0.88,0.21,1.33,0.33c0.44,0.13,0.84,0.29,1.2,0.48c0.36,0.2,0.65,0.49,0.88,0.88c0.23,0.39,0.34,0.88,0.34,1.46
		c0,0.88-0.34,1.65-1.01,2.31c-0.68,0.65-1.59,0.98-2.74,0.98s-2.09-0.26-2.81-0.79s-1.08-1.25-1.08-2.15h1.59
		c0.04,0.51,0.25,0.93,0.61,1.24c0.37,0.32,0.91,0.47,1.63,0.47s1.29-0.19,1.72-0.56c0.43-0.37,0.64-0.8,0.64-1.3
		s-0.11-0.88-0.34-1.15c-0.23-0.27-0.52-0.47-0.88-0.6c-0.36-0.13-0.76-0.24-1.2-0.33s-0.88-0.21-1.33-0.34
		c-0.44-0.13-0.84-0.3-1.2-0.5c-0.36-0.2-0.65-0.5-0.88-0.9c-0.23-0.4-0.34-0.89-0.34-1.48c0-0.96,0.34-1.73,1.02-2.31
		c0.68-0.58,1.57-0.88,2.67-0.88s1.97,0.25,2.62,0.76c0.65,0.51,1.02,1.21,1.12,2.1h-1.65c-0.04-0.45-0.25-0.83-0.63-1.14
		c-0.38-0.32-0.88-0.47-1.52-0.47s-1.16,0.16-1.56,0.48C423.26,242.36,423.06,242.83,423.06,243.45z"/>
	<path class="st0" d="M434.3,243.45c0,0.42,0.11,0.76,0.34,1.03c0.23,0.27,0.52,0.47,0.88,0.61c0.36,0.13,0.76,0.25,1.2,0.34
		c0.44,0.1,0.88,0.21,1.33,0.33c0.44,0.13,0.84,0.29,1.2,0.48c0.36,0.2,0.65,0.49,0.88,0.88c0.23,0.39,0.34,0.88,0.34,1.46
		c0,0.88-0.34,1.65-1.01,2.31c-0.68,0.65-1.59,0.98-2.74,0.98s-2.09-0.26-2.81-0.79s-1.08-1.25-1.08-2.15h1.59
		c0.04,0.51,0.25,0.93,0.61,1.24c0.37,0.32,0.91,0.47,1.63,0.47s1.29-0.19,1.72-0.56c0.43-0.37,0.64-0.8,0.64-1.3
		s-0.11-0.88-0.34-1.15c-0.23-0.27-0.52-0.47-0.88-0.6c-0.36-0.13-0.76-0.24-1.2-0.33s-0.88-0.21-1.33-0.34
		c-0.44-0.13-0.84-0.3-1.2-0.5c-0.36-0.2-0.65-0.5-0.88-0.9c-0.23-0.4-0.34-0.89-0.34-1.48c0-0.96,0.34-1.73,1.02-2.31
		c0.68-0.58,1.57-0.88,2.67-0.88s1.97,0.25,2.62,0.76c0.65,0.51,1.02,1.21,1.12,2.1h-1.65c-0.04-0.45-0.25-0.83-0.63-1.14
		c-0.38-0.32-0.88-0.47-1.52-0.47s-1.16,0.16-1.56,0.48C434.5,242.36,434.3,242.83,434.3,243.45z"/>
	<path class="st0" d="M445.61,251.48c-0.19,0.19-0.41,0.28-0.67,0.28s-0.49-0.09-0.67-0.28c-0.19-0.18-0.28-0.41-0.28-0.68
		c0-0.27,0.09-0.49,0.28-0.68s0.41-0.28,0.67-0.28s0.48,0.09,0.67,0.28s0.28,0.41,0.28,0.68
		C445.89,251.07,445.8,251.3,445.61,251.48z"/>
</g>
<g>
	<path class="st0" d="M147.97,177.8c0,6.88,0.81,8.5,6.51,8.5v2.05h-19.1v-2.05c5.64,0,6.45-1.61,6.45-8.5v-25.92
		c0-3.1,0.81-6.88-3.41-6.88c-6.32,0-11.47,4.84-14.14,10.11l-1.67-0.68l4.46-11.47h35.78l4.34,11.47l-1.55,0.68
		c-2.67-5.33-8.06-9.98-14.26-10.11c-4.22,0-3.41,3.78-3.41,6.88V177.8z"/>
	<path class="st0" d="M178.69,179.85c0,5.83,0,6.2,4.22,6.7v1.8h-13.83v-1.8c4.15-0.5,4.15-0.87,4.15-6.7v-28.28
		c0-5.4-0.87-5.15-5.27-5.46v-1.8l10.73-3.53v21.39c2.79-2.54,7.19-4.84,10.98-4.84c6.51,0,7.81,4.71,7.81,11.16v11.35
		c0,5.83,0,6.2,4.16,6.7v1.8h-13.77v-1.8c4.15-0.5,4.15-0.87,4.15-6.7V168.5c0-4.34-0.87-7.88-5.02-7.88
		c-3.22,0-6.08,2.17-8.31,4.15V179.85z"/>
	<path class="st0" d="M222.41,165.96c0-3.04-0.62-6.57-4.34-6.57c-3.1,0-4.4,2.05-5.08,4.71c-0.56,1.92-1.36,3.1-3.6,3.1
		c-1.74,0-2.92-1.05-2.92-2.73c0-5.15,7.26-7.13,11.29-7.13c2.6,0,5.77,0.43,7.88,2.17c2.23,1.86,2.23,4.46,2.23,7.07v14.14
		c0,1.49,0,4.22,1.86,4.22c1.05,0,1.8-0.74,2.54-1.55l0.81,1.3c-1.55,2.29-3.41,4.34-6.33,4.34c-2.54,0-3.97-1.98-4.22-4.34
		c-2.85,2.29-6.2,4.34-9.92,4.34c-4.34,0-7.32-2.98-7.32-7.38c0-8.25,10.79-10.36,17.12-11.6V165.96z M222.41,172.1
		c-4.4,0.74-11.22,3.72-11.22,8.87c0,2.91,2.05,4.77,4.53,4.77c2.29,0,5.15-1.8,6.7-3.53V172.1z"/>
	<path class="st0" d="M243.62,179.85c0,5.83,0,6.2,4.16,6.7v1.8h-13.83v-1.8c4.22-0.5,4.22-0.87,4.22-6.7v-13.33
		c-0.19-3.29-0.25-4.46-4.03-4.46v-1.49l9.49-3.66v5.27c2.36-2.54,6.26-4.84,9.74-4.84c2.17,0,4.34,0.87,5.89,2.42
		c2.05,2.29,2.11,5.15,2.11,8.06v12.03c0,5.83,0,6.2,4.15,6.7v1.8h-13.89v-1.8c4.28-0.5,4.28-0.87,4.28-6.7V169
		c0-3.72-0.25-8.37-5.15-8.37c-2.73,0-5.27,2.23-7.13,4.09V179.85z"/>
	<path class="st0" d="M285.73,166.21c0.99-0.99,2.79-2.6,2.79-4.22c0-1.49-1.05-2.11-3.16-2.17v-1.8h14.45v1.8
		c-4.09,0.12-6.26,2.29-9.05,4.9l-4.84,4.59l8.81,12.65c1.74,2.54,3.22,4.65,6.57,4.59v1.8h-14.82v-1.8c1.74,0,3.35-0.31,3.35-1.8
		c0-1.12-1.36-2.85-1.92-3.78l-5.77-8.12l-4.09,3.84v3.16c0,5.83,0,6.2,4.28,6.7v1.8h-13.95v-1.8c4.22-0.5,4.22-0.87,4.22-6.7
		v-28.28c0-5.4-0.87-5.15-5.27-5.46v-1.8l10.73-3.53v33.18L285.73,166.21z"/>
	<path class="st0" d="M338.19,167.08c0.43-1.12,1.3-3.41,1.3-4.65c0-2.36-2.79-2.6-4.59-2.6v-1.8h13.21v1.8
		c-1.05,0.06-2.29,0.06-3.16,0.81c-1.8,1.3-3.29,5.4-4.09,7.57l-8.93,22.2c-1.67,4.46-3.84,9.55-9.36,9.55
		c-2.29,0-4.84-1.49-4.84-4.09c0-1.86,1.49-3.16,3.29-3.16c2.42,0,3.1,2.42,4.65,2.42c2.54,0,3.6-5.4,4.46-7.26l-8.87-22.39
		c-1.18-2.85-1.8-5.64-5.46-5.64v-1.8h14.01v1.8c-1.3,0-3.72,0.06-3.72,1.8c0,0.93,0.43,2.11,0.81,2.98l6.01,16L338.19,167.08z"/>
	<path class="st0" d="M349.98,173.71c0-8.06,5.33-16.37,14.08-16.37c8.62,0,13.77,8.43,13.77,16.31c0,7.94-5.89,15.38-14.14,15.38
		C355.74,189.03,349.98,181.34,349.98,173.71z M371.56,172.47c0-4.53-1.43-13.08-7.5-13.08c-6.26,0-7.81,8.19-7.81,12.96
		c0,4.4,1.43,14.63,7.44,14.63C370.13,186.98,371.56,177.25,371.56,172.47z"/>
	<path class="st0" d="M403.31,183.94c-2.6,2.6-5.95,5.08-9.8,5.08c-2.54,0-5.21-0.93-6.7-3.22c-1.55-2.42-1.55-5.39-1.55-8.25
		v-11.04c-0.19-3.29-0.25-4.46-4.03-4.46v-1.49l9.49-3.66v22.26c0,3.29,1.3,6.57,5.09,6.57c3.04,0,5.46-2.48,7.44-4.4v-14.82
		c-0.19-3.29-0.25-4.46-4.03-4.46v-1.49l9.49-3.66v22.94c0,5.83,0,6.2,4.28,6.7v1.8h-9.67V183.94z"/>
</g>
<g>
	<g>
		<path d="M274.91,60.84c-5.97-3.73-10.86-7.21-17.59-8.93c5.82-1.03,10.97,4.3,17.81,8.57c5.97,3.73,10.86,7.21,17.59,8.93
			C286.91,70.44,281.75,65.11,274.91,60.84z"/>
		<path d="M274.91,63.1c-5.97,3.73-10.86,7.21-17.59,8.93c5.82,1.03,10.97-4.3,17.81-8.57c5.97-3.73,10.86-7.21,17.59-8.93
			C286.91,53.5,281.75,58.83,274.91,63.1z"/>
		<path d="M268.1,60.84c5.97-3.73,10.86-7.21,17.59-8.93c-5.81-1.03-10.97,4.3-17.81,8.57c-5.97,3.73-10.86,7.21-17.59,8.93
			C256.1,70.44,261.25,65.11,268.1,60.84z"/>
		<path d="M268.1,63.1c5.97,3.73,10.86,7.21,17.59,8.93c-5.81,1.03-10.97-4.3-17.81-8.57c-5.97-3.73-10.86-7.21-17.59-8.93
			C256.1,53.5,261.25,58.83,268.1,63.1z"/>
	</g>
	<g>
		<g>
			<path d="M315.31,61.98c0-3.94-5.21-7.17-13.15-5.17c-22.66,5.72-35.86,24.35-56.01,25.86c-13.75,1.03-15.44-11.57,1.41-9.96
				c14.21,1.36,30.8,12.47,30.28,20.37c-0.28,4.19-4.04,4.04-5.38,8.12c0-3.93,3.14-4.24,3.14-8.41c0-6.99-10.45-17.52-27.57-19.27
				c-12.13-1.25-13.24,7.62-1.53,7.35c19.56-0.45,36.22-19.72,54.86-25.29c10.99-3.29,17.23,1.25,17.23,6.39
				C317.66,61.97,316.46,61.98,315.31,61.98z"/>
			<path d="M315.31,61.97c0,3.94-5.21,7.17-13.15,5.17c-22.66-5.72-35.86-24.36-56.01-25.86c-13.75-1.03-15.44,11.57,1.41,9.96
				c14.21-1.36,30.8-12.47,30.28-20.36c-0.28-4.19-4.04-4.04-5.38-8.12c0,3.93,3.14,4.24,3.14,8.41c0,6.99-10.45,17.52-27.57,19.27
				c-12.13,1.25-13.24-7.62-1.53-7.35c19.56,0.45,36.22,19.72,54.86,25.29c10.99,3.28,17.23-1.25,17.23-6.39
				C317.66,61.97,316.46,61.97,315.31,61.97z"/>
		</g>
		<g>
			<path d="M227.7,61.98c0-3.94,5.21-7.17,13.14-5.17c22.66,5.72,35.86,24.35,56.01,25.86c13.75,1.03,15.44-11.57-1.41-9.96
				c-14.21,1.36-30.8,12.47-30.29,20.37c0.27,4.19,4.05,4.04,5.38,8.12c0-3.93-3.14-4.24-3.14-8.41c0-6.99,10.45-17.52,27.57-19.27
				c12.13-1.25,13.23,7.62,1.53,7.35c-19.56-0.45-36.22-19.72-54.86-25.29c-10.99-3.29-17.23,1.25-17.23,6.39
				C225.35,61.97,226.55,61.98,227.7,61.98z"/>
			<path d="M227.7,61.97c0,3.94,5.21,7.17,13.14,5.17c22.66-5.72,35.86-24.36,56.01-25.86c13.75-1.03,15.44,11.57-1.41,9.96
				c-14.21-1.36-30.8-12.47-30.29-20.36c0.27-4.19,4.05-4.04,5.38-8.12c0,3.93-3.14,4.24-3.14,8.41c0,6.99,10.45,17.52,27.57,19.27
				c12.13,1.25,13.23-7.62,1.53-7.35c-19.56,0.45-36.22,19.72-54.86,25.29c-10.99,3.28-17.23-1.25-17.23-6.39
				C225.35,61.97,226.55,61.97,227.7,61.97z"/>
		</g>
	</g>
</g>
</svg>
